{
  "IndexData": [
    0,
    1,
    2,
    2,
    3,
    0
  ],
  "Layout": {
    "Elements": [
      {
        "Name": "a_Position",
        "Normalized": false,
        "Offset": 0,
        "Size": 12,
        "Type": 3
      },
      {
        "Name": "a_TexCoord",
        "Normalized": false,
        "Offset": 12,
        "Size": 8,
        "Type": 2
      }
    ],
    "Stride": 20
  },
  "VertexData": [
    -0.500000,
    -0.500000,
    -3.000000,
    0.000000,
    0.000000,
    0.500000,
    -0.500000,
    -3.000000,
    1.000000,
    0.000000,
    0.500000,
    0.500000,
    -3.000000,
    1.000000,
    1.000000,
    -0.500000,
    0.500000,
    -3.000000,
    0.000000,
    1.000000
  ]
}