name: Fallback
mesh_data:
  vertex_data:
    - -0.5
    - -0.5
    - 0.5
    - 0.0
    - 0.0
    - 0.5
    - -0.5
    - 0.5
    - 1.0
    - 0.0
    - 0.5
    - 0.5
    - 0.5
    - 1.0
    - 1.0
    - -0.5
    - 0.5
    - 0.5
    - 0.0
    - 1.0
    - -0.5
    - -0.5
    - -0.5
    - 1.0
    - 0.0
    - 0.5
    - -0.5
    - -0.5
    - 0.0
    - 0.0
    - 0.5
    - 0.5
    - -0.5
    - 0.0
    - 1.0
    - -0.5
    - 0.5
    - -0.5
    - 1.0
    - 1.0
  index_data:
    - 0
    - 1
    - 2
    - 2
    - 3
    - 0
    - 4
    - 5
    - 6
    - 6
    - 7
    - 4
    - 7
    - 3
    - 0
    - 0
    - 4
    - 7
    - 1
    - 5
    - 6
    - 6
    - 2
    - 1
    - 3
    - 2
    - 6
    - 6
    - 7
    - 3
    - 0
    - 1
    - 5
    - 5
    - 4
    - 0
  layout:
    elements:
      - shader_data_type: 3
        attribute_name: a_Position
        size: 12
        offset: 0
        normalized: false
      - shader_data_type: 2
        attribute_name: a_TexCoord
        size: 8
        offset: 12
        normalized: false
    stride: 20
